<?xml version="1.0" encoding="UTF-8" standalone="no"?>
<svg
   xmlns:dc="http://purl.org/dc/elements/1.1/"
   xmlns:cc="http://creativecommons.org/ns#"
   xmlns:rdf="http://www.w3.org/1999/02/22-rdf-syntax-ns#"
   xmlns:svg="http://www.w3.org/2000/svg"
   xmlns="http://www.w3.org/2000/svg"
   viewBox="0 0 872.47998 96.279999"
   height="96.279999"
   width="872.47998"
   xml:space="preserve"
   id="svg2"
   version="1.1"><metadata
     id="metadata8"><rdf:RDF><cc:Work
         rdf:about=""><dc:format>image/svg+xml</dc:format><dc:type
           rdf:resource="http://purl.org/dc/dcmitype/StillImage" /></cc:Work></rdf:RDF></metadata><defs
     id="defs6" /><g
     transform="matrix(1.3333333,0,0,-1.3333333,0,96.28)"
     id="g10"><g
       transform="scale(0.1)"
       id="g12"><g
         transform="scale(10)"
         id="g14"><text
           id="text18"
           style="font-variant:normal;font-weight:300;font-size:65px;font-family:Montserrat;-inkscape-font-specification:Montserrat-Light;writing-mode:lr-tb;fill:#3c3c3d;fill-opacity:1;fill-rule:nonzero;stroke:none"
           transform="matrix(0.999991,0,0,-1,71.7793,16.9648)"><tspan
             id="tspan16"
             y="0"
             x="0 38.804062 64.023994 98.343994 135.98003 152.94411 191.74815 216.96815 251.28815 284.69669 301.66074 335.06927 378.81372 416.70874 454.92789 471.89197 510.69598 527.98529 565.62134">etykiety i naklejki</tspan></text>
</g><path
         id="path20"
         style="fill:#ea3636;fill-opacity:1;fill-rule:nonzero;stroke:none"
         d="m 348.355,339.324 c 0,-96.187 -77.984,-174.172 -174.179,-174.172 C 77.9805,165.152 0,243.137 0,339.324 c 0,96.199 77.9805,174.184 174.176,174.184 96.195,0 174.179,-77.985 174.179,-174.184" /></g></g></svg>